# xmcd
#
# Track frame offsets: 
#        150
#        794
#        12052
#        27589
#        43639
#        59624
#        80103
#        102838
#        118658
#        138267
#        154817
#        170504
#        187003
#
# Disc length: 2700 seconds
#
# Revision: 0
# Processed by: cddbd v1.5.2PL0 Copyright (c) Steve Scherf et al.
# Submitted via: ExactAudioCopy v0.99pb4
#
DISCID=a30a8a0d
DTITLE=Желтая Ветка - Начинай Говорить Вслух
DYEAR=2005
DGENRE=Rap
TTITLE0=Интро
TTITLE1=Для Тех Кто
TTITLE2=Чтобы Знали
TTITLE3=Du'L
TTITLE4=Дорога
TTITLE5=Трамваи-Маршрутки
TTITLE6=Сожри Меня Заживо
TTITLE7=Слезы По Началу
TTITLE8=Было Бы Дело
TTITLE9=Не В Не Б Не П
TTITLE10=Пока На Небе Тучки
TTITLE11=Точка Точка Точка
TTITLE12=Планка Развития
EXTD=
EXTT0=
EXTT1=
EXTT2=
EXTT3=
EXTT4=
EXTT5=
EXTT6=
EXTT7=
EXTT8=
EXTT9=
EXTT10=
EXTT11=
EXTT12=
PLAYORDER=
